<svg xmlns="http://www.w3.org/2000/svg" width="100" height="100" viewBox="0 0 100 100">
  <g id="Group_3481" data-name="Group 3481" transform="translate(-8631 3362)">
    <g id="Group_3363" data-name="Group 3363" transform="translate(8681.304 -3362)">
      <path id="Path_7831" data-name="Path 7831" d="M72.644,22.942h1.776l.763-12.121H72.644Z" transform="translate(-72.644 -10.821)" fill="#be9f56"/>
      <path id="Path_7832" data-name="Path 7832" d="M75.246,22.942H77.04l1.531-12.121H76.008Z" transform="translate(-72.863 -10.821)" fill="#be9f56"/>
      <path id="Path_7833" data-name="Path 7833" d="M77.872,22.942H79.7l2.312-12.121H79.4Z" transform="translate(-73.085 -10.821)" fill="#be9f56"/>
      <path id="Path_7834" data-name="Path 7834" d="M113.682,48.963v2.045L125.8,47.07V44.164Z" transform="translate(-76.107 -13.634)" fill="#be9f56"/>
      <path id="Path_7835" data-name="Path 7835" d="M113.682,51.973v1.95L125.8,50.81V48.034Z" transform="translate(-76.107 -13.961)" fill="#be9f56"/>
      <path id="Path_7836" data-name="Path 7836" d="M113.682,54.862v1.879L125.8,54.429V51.75Z" transform="translate(-76.107 -14.274)" fill="#be9f56"/>
      <path id="Path_7837" data-name="Path 7837" d="M113.682,57.661v1.827L125.8,57.956V55.349Z" transform="translate(-76.107 -14.578)" fill="#be9f56"/>
      <path id="Path_7838" data-name="Path 7838" d="M113.682,45.811v2.165l12.1-4.79c-.014-1.006-.072-2-.182-2.983Z" transform="translate(-76.107 -13.3)" fill="#be9f56"/>
      <path id="Path_7839" data-name="Path 7839" d="M113.64,42.513c.01.255.038.5.038.76v1.538L125.5,39.248q-.2-1.5-.545-2.956Z" transform="translate(-76.103 -12.97)" fill="#be9f56"/>
      <path id="Path_7840" data-name="Path 7840" d="M113.257,39.217a18.126,18.126,0,0,1,.317,2.3l11.193-6.154q-.382-1.471-.9-2.88Z" transform="translate(-76.071 -12.649)" fill="#be9f56"/>
      <path id="Path_7841" data-name="Path 7841" d="M108.55,29.843l8.823-8.285q-1.023-1.13-2.153-2.153l-8.285,8.824A18.276,18.276,0,0,1,108.55,29.843Z" transform="translate(-75.537 -11.545)" fill="#be9f56"/>
      <path id="Path_7842" data-name="Path 7842" d="M86.1,22.942h2.045l4.8-12.121H90.041Z" transform="translate(-73.779 -10.821)" fill="#be9f56"/>
      <path id="Path_7843" data-name="Path 7843" d="M92.144,22.969h1.538c.257,0,.507.028.762.038l6.221-11.315q-1.454-.345-2.957-.546Z" transform="translate(-74.289 -10.848)" fill="#be9f56"/>
      <path id="Path_7844" data-name="Path 7844" d="M80.54,22.942h1.879l3.112-12.121H82.853Z" transform="translate(-73.31 -10.821)" fill="#be9f56"/>
      <path id="Path_7845" data-name="Path 7845" d="M83.275,22.942h1.951l3.938-12.121H86.387Z" transform="translate(-73.541 -10.821)" fill="#be9f56"/>
      <path id="Path_7846" data-name="Path 7846" d="M95.389,23.106a18.3,18.3,0,0,1,2.3.317l6.733-10.607a30,30,0,0,0-2.882-.9Z" transform="translate(-74.563 -10.913)" fill="#be9f56"/>
      <path id="Path_7847" data-name="Path 7847" d="M109.144,30.531a18.2,18.2,0,0,1,1.329,1.862l9.376-7.757a30.419,30.419,0,0,0-1.882-2.391Z" transform="translate(-75.724 -11.785)" fill="#be9f56"/>
      <path id="Path_7848" data-name="Path 7848" d="M98.578,23.685a17.939,17.939,0,0,1,2.2.691l7.264-10a29.99,29.99,0,0,0-2.762-1.247Z" transform="translate(-74.832 -11.016)" fill="#be9f56"/>
      <path id="Path_7849" data-name="Path 7849" d="M112.328,36.095a18.114,18.114,0,0,1,.691,2.2l10.553-6.7a30.251,30.251,0,0,0-1.247-2.762Z" transform="translate(-75.992 -12.34)" fill="#be9f56"/>
      <path id="Path_7850" data-name="Path 7850" d="M110.943,33.184a17.993,17.993,0,0,1,1.046,2.035l9.953-7.232a30.371,30.371,0,0,0-1.577-2.6Z" transform="translate(-75.875 -12.05)" fill="#be9f56"/>
      <path id="Path_7851" data-name="Path 7851" d="M101.618,24.739a18.059,18.059,0,0,1,2.035,1.047l7.795-9.423a30.343,30.343,0,0,0-2.6-1.576Z" transform="translate(-75.089 -11.155)" fill="#be9f56"/>
      <path id="Path_7852" data-name="Path 7852" d="M104.412,26.282a18.305,18.305,0,0,1,1.862,1.329l8.285-8.823a30.406,30.406,0,0,0-2.391-1.882Z" transform="translate(-75.324 -11.334)" fill="#be9f56"/>
      <path id="Path_7853" data-name="Path 7853" d="M89.048,22.944h2.166l5.608-11.918c-.981-.11-1.977-.168-2.984-.182Z" transform="translate(-74.028 -10.823)" fill="#be9f56"/>
    </g>
    <g id="Group_3364" data-name="Group 3364" transform="translate(8631 -3362)" opacity="0.5">
      <path id="Path_7854" data-name="Path 7854" d="M52.694,22.944H54.86l-4.79-12.1c-1.006.014-2,.072-2.982.182Z" transform="translate(-20.184 -10.823)" fill="#fff"/>
      <path id="Path_7855" data-name="Path 7855" d="M55.847,22.942h2.045L53.953,10.821H51.047Z" transform="translate(-20.518 -10.821)" fill="#fff"/>
      <path id="Path_7856" data-name="Path 7856" d="M58.856,22.942h1.949L57.693,10.821H54.918Z" transform="translate(-20.844 -10.821)" fill="#fff"/>
      <path id="Path_7857" data-name="Path 7857" d="M49.4,23.008c.254-.01.5-.038.76-.038h1.537L46.132,11.147q-1.5.2-2.956.545Z" transform="translate(-19.854 -10.848)" fill="#fff"/>
      <path id="Path_7858" data-name="Path 7858" d="M42.979,24.377a17.956,17.956,0,0,1,2.2-.691l-6.7-10.553a30,30,0,0,0-2.762,1.247Z" transform="translate(-19.224 -11.016)" fill="#fff"/>
      <path id="Path_7859" data-name="Path 7859" d="M46.1,23.423a18.143,18.143,0,0,1,2.3-.317L42.249,11.913q-1.471.382-2.881.9Z" transform="translate(-19.532 -10.913)" fill="#fff"/>
      <path id="Path_7860" data-name="Path 7860" d="M69.971,22.942h1.776V10.821H69.208Z" transform="translate(-22.05 -10.821)" fill="#fff"/>
      <path id="Path_7861" data-name="Path 7861" d="M64.544,22.942h1.827L64.84,10.821H62.232Z" transform="translate(-21.462 -10.821)" fill="#fff"/>
      <path id="Path_7862" data-name="Path 7862" d="M67.278,22.942h1.793l-.763-12.121H65.747Z" transform="translate(-21.758 -10.821)" fill="#fff"/>
      <path id="Path_7863" data-name="Path 7863" d="M61.745,22.942h1.879L61.312,10.821H58.633Z" transform="translate(-21.158 -10.821)" fill="#fff"/>
      <path id="Path_7864" data-name="Path 7864" d="M29.825,51.008V48.963L17.7,44.164V47.07Z" transform="translate(-17.704 -13.634)" fill="#fff"/>
      <path id="Path_7865" data-name="Path 7865" d="M29.827,47.977V45.811L17.909,40.2c-.11.981-.168,1.976-.182,2.983Z" transform="translate(-17.706 -13.3)" fill="#fff"/>
      <path id="Path_7866" data-name="Path 7866" d="M29.852,44.811V43.273c0-.256.028-.505.038-.76L18.576,36.292a29.971,29.971,0,0,0-.545,2.956Z" transform="translate(-17.732 -12.97)" fill="#fff"/>
      <path id="Path_7867" data-name="Path 7867" d="M29.825,53.922v-1.95L17.7,48.034V50.81Z" transform="translate(-17.704 -13.961)" fill="#fff"/>
      <path id="Path_7868" data-name="Path 7868" d="M29.825,56.741V54.862L17.7,51.75v2.679Z" transform="translate(-17.704 -14.274)" fill="#fff"/>
      <path id="Path_7869" data-name="Path 7869" d="M29.825,59.488V57.661L17.7,55.349v2.608Z" transform="translate(-17.704 -14.578)" fill="#fff"/>
      <path id="Path_7870" data-name="Path 7870" d="M29.825,62.188V60.395L17.7,58.863v2.562Z" transform="translate(-17.704 -14.875)" fill="#fff"/>
      <path id="Path_7871" data-name="Path 7871" d="M33.166,32.394a18.447,18.447,0,0,1,1.328-1.862l-8.823-8.285a30.255,30.255,0,0,0-1.882,2.392Z" transform="translate(-18.218 -11.785)" fill="#fff"/>
      <path id="Path_7872" data-name="Path 7872" d="M37.415,27.61a18.109,18.109,0,0,1,1.862-1.329l-7.757-9.377q-1.244.882-2.392,1.882Z" transform="translate(-18.668 -11.334)" fill="#fff"/>
      <path id="Path_7873" data-name="Path 7873" d="M29.99,41.519a18.12,18.12,0,0,1,.317-2.3L19.7,32.484a29.979,29.979,0,0,0-.9,2.881Z" transform="translate(-17.796 -12.649)" fill="#fff"/>
      <path id="Path_7874" data-name="Path 7874" d="M40.067,25.784A18.055,18.055,0,0,1,42.1,24.739L34.87,14.786a30.355,30.355,0,0,0-2.6,1.577Z" transform="translate(-18.933 -11.155)" fill="#fff"/>
      <path id="Path_7875" data-name="Path 7875" d="M30.568,38.291a18.163,18.163,0,0,1,.691-2.2l-10-7.264a30.119,30.119,0,0,0-1.248,2.762Z" transform="translate(-17.899 -12.34)" fill="#fff"/>
      <path id="Path_7876" data-name="Path 7876" d="M31.623,35.217a18.134,18.134,0,0,1,1.046-2.035l-9.422-7.795q-.852,1.257-1.577,2.6Z" transform="translate(-18.039 -12.05)" fill="#fff"/>
      <path id="Path_7877" data-name="Path 7877" d="M35.113,29.843a18.149,18.149,0,0,1,1.614-1.614l-8.285-8.823q-1.13,1.023-2.152,2.152Z" transform="translate(-18.429 -11.545)" fill="#fff"/>
      <path id="Path_7878" data-name="Path 7878" d="M35.112,100.052l-8.823,8.285a30.407,30.407,0,0,0,2.153,2.153l8.284-8.823A18.409,18.409,0,0,1,35.112,100.052Z" transform="translate(-18.428 -18.35)" fill="#fff"/>
      <path id="Path_7879" data-name="Path 7879" d="M108.55,100.052a18.164,18.164,0,0,1-1.615,1.615l8.285,8.823q1.13-1.023,2.154-2.153Z" transform="translate(-25.234 -18.35)" fill="#fff"/>
      <path id="Path_7880" data-name="Path 7880" d="M125.8,58.863l-12.121,1.531v1.793l12.121-.763Z" transform="translate(-25.803 -14.875)" fill="#fff"/>
      <path id="Path_7881" data-name="Path 7881" d="M110.473,97.529a18.207,18.207,0,0,1-1.329,1.862l8.823,8.285q1-1.148,1.882-2.391Z" transform="translate(-25.42 -18.138)" fill="#fff"/>
      <path id="Path_7882" data-name="Path 7882" d="M100.775,105.445a17.993,17.993,0,0,1-2.2.69l6.7,10.554a30.234,30.234,0,0,0,2.762-1.247Z" transform="translate(-24.529 -18.806)" fill="#fff"/>
      <path id="Path_7883" data-name="Path 7883" d="M94.444,106.757c-.255.01-.5.038-.762.038H92.144l5.563,11.821a30,30,0,0,0,2.957-.545Z" transform="translate(-23.986 -18.916)" fill="#fff"/>
      <path id="Path_7884" data-name="Path 7884" d="M97.693,106.373a18.153,18.153,0,0,1-2.3.317l6.154,11.194a30.055,30.055,0,0,0,2.881-.9Z" transform="translate(-24.26 -18.884)" fill="#fff"/>
      <path id="Path_7885" data-name="Path 7885" d="M106.274,102.261a18.436,18.436,0,0,1-1.861,1.328l7.757,9.377q1.244-.882,2.39-1.882Z" transform="translate(-25.021 -18.537)" fill="#fff"/>
      <path id="Path_7886" data-name="Path 7886" d="M103.652,104.059a17.9,17.9,0,0,1-2.035,1.046l7.231,9.953a30.124,30.124,0,0,0,2.6-1.576Z" transform="translate(-24.785 -18.689)" fill="#fff"/>
      <path id="Path_7887" data-name="Path 7887" d="M91.214,106.8H89.048l4.79,12.1c1.007-.014,2-.072,2.984-.182Z" transform="translate(-23.725 -18.92)" fill="#fff"/>
      <path id="Path_7888" data-name="Path 7888" d="M29.825,64.864V63.088L17.7,62.325v2.539Z" transform="translate(-17.704 -15.167)" fill="#fff"/>
      <path id="Path_7889" data-name="Path 7889" d="M88.148,106.8H86.1l3.938,12.121h2.907Z" transform="translate(-23.476 -18.92)" fill="#fff"/>
      <path id="Path_7890" data-name="Path 7890" d="M79.7,106.8H77.872L79.4,118.92h2.608Z" transform="translate(-22.781 -18.92)" fill="#fff"/>
      <path id="Path_7891" data-name="Path 7891" d="M82.419,106.8H80.54l2.312,12.121h2.679Z" transform="translate(-23.007 -18.92)" fill="#fff"/>
      <path id="Path_7892" data-name="Path 7892" d="M85.226,106.8H83.275l3.112,12.121h2.778Z" transform="translate(-23.237 -18.92)" fill="#fff"/>
      <path id="Path_7893" data-name="Path 7893" d="M113.682,79.219v2.046l12.121,4.8V83.158Z" transform="translate(-25.803 -16.592)" fill="#fff"/>
      <path id="Path_7894" data-name="Path 7894" d="M113.682,70.989v1.827L125.8,75.128V72.52Z" transform="translate(-25.803 -15.898)" fill="#fff"/>
      <path id="Path_7895" data-name="Path 7895" d="M113.682,73.657v1.879L125.8,78.648V75.969Z" transform="translate(-25.803 -16.123)" fill="#fff"/>
      <path id="Path_7896" data-name="Path 7896" d="M113.682,68.362v1.794L125.8,71.688V69.125Z" transform="translate(-25.803 -15.676)" fill="#fff"/>
      <path id="Path_7897" data-name="Path 7897" d="M113.682,63.088v1.776H125.8V62.325Z" transform="translate(-25.803 -15.167)" fill="#fff"/>
      <path id="Path_7898" data-name="Path 7898" d="M111.989,94.735a18.145,18.145,0,0,1-1.046,2.035l9.422,7.794a30.372,30.372,0,0,0,1.577-2.6Z" transform="translate(-25.572 -17.902)" fill="#fff"/>
      <path id="Path_7899" data-name="Path 7899" d="M113.682,65.76v1.776L125.8,68.3V65.76Z" transform="translate(-25.803 -15.457)" fill="#fff"/>
      <path id="Path_7900" data-name="Path 7900" d="M113.682,76.392v1.951L125.8,82.282V79.5Z" transform="translate(-25.803 -16.354)" fill="#fff"/>
      <path id="Path_7901" data-name="Path 7901" d="M113.574,88.507a18.3,18.3,0,0,1-.317,2.3l10.607,6.732a30.036,30.036,0,0,0,.9-2.881Z" transform="translate(-25.767 -17.376)" fill="#fff"/>
      <path id="Path_7902" data-name="Path 7902" d="M74.419,106.8H72.644V118.92h2.539Z" transform="translate(-22.34 -18.92)" fill="#fff"/>
      <path id="Path_7903" data-name="Path 7903" d="M113.019,91.7a17.948,17.948,0,0,1-.691,2.2l10,7.263a30.073,30.073,0,0,0,1.247-2.761Z" transform="translate(-25.689 -17.645)" fill="#fff"/>
      <path id="Path_7904" data-name="Path 7904" d="M113.682,82.164V84.33L125.6,89.938c.11-.982.168-1.977.182-2.984Z" transform="translate(-25.803 -16.841)" fill="#fff"/>
      <path id="Path_7905" data-name="Path 7905" d="M113.678,85.261V86.8c0,.257-.028.507-.038.761l11.315,6.222q.345-1.454.546-2.957Z" transform="translate(-25.8 -17.102)" fill="#fff"/>
      <path id="Path_7906" data-name="Path 7906" d="M77.04,106.8H75.246l.762,12.121h2.563Z" transform="translate(-22.56 -18.92)" fill="#fff"/>
      <path id="Path_7907" data-name="Path 7907" d="M34.493,99.391a18.452,18.452,0,0,1-1.328-1.862l-9.377,7.757a30.419,30.419,0,0,0,1.882,2.391Z" transform="translate(-18.218 -18.138)" fill="#fff"/>
      <path id="Path_7908" data-name="Path 7908" d="M29.825,81.265V79.22L17.7,83.158v2.906Z" transform="translate(-17.704 -16.593)" fill="#fff"/>
      <path id="Path_7909" data-name="Path 7909" d="M29.827,84.33V82.164l-12.1,4.791c.014,1.006.072,2,.182,2.983Z" transform="translate(-17.706 -16.841)" fill="#fff"/>
      <path id="Path_7910" data-name="Path 7910" d="M29.891,87.56c-.01-.254-.038-.5-.038-.761V85.261L18.031,90.824a30.056,30.056,0,0,0,.545,2.957Z" transform="translate(-17.732 -17.102)" fill="#fff"/>
      <path id="Path_7911" data-name="Path 7911" d="M31.26,93.891a17.989,17.989,0,0,1-.69-2.2l-10.554,6.7a30.23,30.23,0,0,0,1.247,2.761Z" transform="translate(-17.899 -17.645)" fill="#fff"/>
      <path id="Path_7912" data-name="Path 7912" d="M32.668,96.77a18.13,18.13,0,0,1-1.046-2.035l-9.953,7.232a30.353,30.353,0,0,0,1.577,2.6Z" transform="translate(-18.039 -17.902)" fill="#fff"/>
      <path id="Path_7913" data-name="Path 7913" d="M30.307,90.809a18.144,18.144,0,0,1-.317-2.3L18.8,94.66a29.979,29.979,0,0,0,.9,2.881Z" transform="translate(-17.796 -17.376)" fill="#fff"/>
      <path id="Path_7914" data-name="Path 7914" d="M29.825,70.156V68.362L17.7,69.125v2.563Z" transform="translate(-17.704 -15.676)" fill="#fff"/>
      <path id="Path_7915" data-name="Path 7915" d="M29.825,67.536V65.76H17.7V68.3Z" transform="translate(-17.704 -15.457)" fill="#fff"/>
      <path id="Path_7916" data-name="Path 7916" d="M71.747,106.8H69.971l-.763,12.121h2.539Z" transform="translate(-22.05 -18.92)" fill="#fff"/>
      <path id="Path_7917" data-name="Path 7917" d="M29.825,78.343V76.392L17.7,79.5v2.777Z" transform="translate(-17.704 -16.354)" fill="#fff"/>
      <path id="Path_7918" data-name="Path 7918" d="M29.825,72.815V70.989L17.7,72.52v2.608Z" transform="translate(-17.704 -15.898)" fill="#fff"/>
      <path id="Path_7919" data-name="Path 7919" d="M29.825,75.536V73.657L17.7,75.969v2.679Z" transform="translate(-17.704 -16.123)" fill="#fff"/>
      <path id="Path_7920" data-name="Path 7920" d="M57.892,106.8H55.846l-4.8,12.121h2.906Z" transform="translate(-20.518 -18.92)" fill="#fff"/>
      <path id="Path_7921" data-name="Path 7921" d="M63.624,106.8H61.745L58.633,118.92h2.679Z" transform="translate(-21.158 -18.92)" fill="#fff"/>
      <path id="Path_7922" data-name="Path 7922" d="M60.806,106.8h-1.95L54.917,118.92h2.776Z" transform="translate(-20.844 -18.92)" fill="#fff"/>
      <path id="Path_7923" data-name="Path 7923" d="M66.371,106.8H64.544L62.232,118.92H64.84Z" transform="translate(-21.462 -18.92)" fill="#fff"/>
      <path id="Path_7924" data-name="Path 7924" d="M39.277,103.589a18.442,18.442,0,0,1-1.862-1.328l-8.285,8.823a30.4,30.4,0,0,0,2.391,1.882Z" transform="translate(-18.668 -18.537)" fill="#fff"/>
      <path id="Path_7925" data-name="Path 7925" d="M69.071,106.8H67.278L65.747,118.92h2.562Z" transform="translate(-21.758 -18.92)" fill="#fff"/>
      <path id="Path_7926" data-name="Path 7926" d="M45.174,106.135a18,18,0,0,1-2.2-.69l-7.264,10a30.125,30.125,0,0,0,2.762,1.248Z" transform="translate(-19.224 -18.806)" fill="#fff"/>
      <path id="Path_7927" data-name="Path 7927" d="M54.861,106.8H52.694l-5.607,11.918c.981.11,1.976.168,2.983.182Z" transform="translate(-20.184 -18.92)" fill="#fff"/>
      <path id="Path_7928" data-name="Path 7928" d="M42.1,105.106a18.055,18.055,0,0,1-2.034-1.047l-7.795,9.423a30.111,30.111,0,0,0,2.6,1.576Z" transform="translate(-18.933 -18.689)" fill="#fff"/>
      <path id="Path_7929" data-name="Path 7929" d="M48.4,106.69a18.136,18.136,0,0,1-2.3-.317l-6.733,10.608a30.035,30.035,0,0,0,2.881.9Z" transform="translate(-19.532 -18.884)" fill="#fff"/>
      <path id="Path_7930" data-name="Path 7930" d="M51.694,106.8H50.157c-.256,0-.506-.028-.76-.038l-6.221,11.315a29.96,29.96,0,0,0,2.956.545Z" transform="translate(-19.854 -18.916)" fill="#fff"/>
    </g>
    <text id="_23_" data-name="23%" transform="translate(8681 -3305)" fill="#fff" font-size="16" font-family="SegoeUI, Segoe UI" letter-spacing="0.1em"><tspan x="-16.772" y="0">23%</tspan></text>
  </g>
</svg>
